<?xml version="1.0" standalone="no"?>
<!DOCTYPE svg PUBLIC "-//W3C//DTD SVG 20010904//EN"
 "http://www.w3.org/TR/2001/REC-SVG-20010904/DTD/svg10.dtd">
<svg version="1.0" xmlns="http://www.w3.org/2000/svg"
 width="18.000000pt" height="18.000000pt" viewBox="0 0 18.000000 18.000000"
 preserveAspectRatio="xMidYMid meet">
<metadata>
Created by potrace 1.16, written by Peter Selinger 2001-2019
</metadata>
<g transform="translate(0.000000,18.000000) scale(0.008000,-0.008000)"
fill="#000000" stroke="none">
<path d="M2159 2210 c-14 -4 -192 -92 -395 -196 l-369 -188 -50 39 c-108 82
-242 120 -395 112 -339 -20 -698 -264 -858 -582 -54 -109 -74 -189 -79 -325
-6 -147 6 -239 48 -365 46 -137 94 -208 239 -356 126 -129 175 -199 195 -281
4 -16 12 -28 18 -28 6 0 36 26 67 58 91 93 111 185 65 296 l-24 59 23 31 c49
64 60 98 60 176 0 62 -5 84 -27 127 -15 28 -36 58 -48 66 -20 15 -20 16 26 36
26 12 50 21 52 21 3 0 2 -15 -1 -34 -8 -41 7 -49 58 -34 44 14 109 68 139 115
19 29 43 43 150 87 257 108 427 228 487 346 24 46 26 103 5 120 -13 11 -13 15
0 41 8 15 17 43 19 61 3 31 24 48 287 240 385 281 385 281 393 314 12 45 -23
63 -85 44z m61 -30 c0 -26 -34 -52 -407 -310 -290 -201 -309 -216 -300 -237
13 -28 -23 -78 -88 -123 -79 -54 -172 -76 -258 -59 -33 6 -54 6 -61 -1 -14
-14 50 -38 127 -46 85 -9 156 9 214 53 44 34 73 38 73 9 0 -22 -83 -129 -131
-168 -102 -83 -213 -144 -403 -223 -95 -40 -101 -44 -126 -91 -23 -42 -78 -94
-100 -94 -4 0 -5 20 -2 45 3 31 1 45 -7 45 -19 0 -229 -88 -303 -127 -92 -48
-155 -105 -169 -153 -10 -33 -9 -43 8 -72 25 -43 60 -47 118 -14 49 29 115
114 141 182 9 24 20 44 24 44 3 0 16 -10 28 -23 78 -83 66 -258 -21 -319 -18
-12 -34 -23 -36 -25 -2 -1 3 -11 11 -20 34 -39 61 -108 61 -158 0 -54 -16 -94
-58 -144 l-27 -31 -35 73 c-29 58 -60 96 -161 197 -139 140 -169 179 -217 283
-46 100 -69 212 -69 332 0 241 98 461 286 640 193 185 424 285 658 285 157 0
250 -32 341 -117 l48 -44 263 142 c145 78 324 175 398 216 141 76 180 88 180
53z m-1710 -1367 c0 -21 -63 -114 -100 -147 -50 -45 -83 -46 -88 -3 -3 23 5
37 38 68 22 21 62 50 88 64 51 26 62 29 62 18z"/>
</g>
</svg>
